<svg width="360" height="185" viewBox="0 0 360 185" fill="none" xmlns="http://www.w3.org/2000/svg">
<path d="M-96.2409 78.7203C-97.206 35.5317 -62.4595 3.61349e-06 -19.2601 3.46855e-06L124.5 2.98619e-06H366V2.98619e-06C362.882 1.43455e-06 360.532 2.83287 361.107 5.897L370.989 58.5406C375.983 85.142 358.651 110.811 332.111 116.121L318.365 118.871C311.502 120.244 304.459 120.475 297.521 119.554L249 113.116L160.294 95.8665C137.637 91.4606 114.199 97.4507 96.4347 112.187L30.5837 166.813C-18.9827 207.93 -94.1195 173.654 -95.5582 109.269L-96.2409 78.7203Z" fill="#0062D7"/>
</svg>
