<svg width="29" height="29" viewBox="0 0 29 29" fill="none" xmlns="http://www.w3.org/2000/svg">
<g clip-path="url(#clip0)">
<circle cx="14.5" cy="14.5" r="14.5" fill="white"/>
<path d="M28.7763 11.984C28.1039 8.1707 25.9868 4.84753 22.815 2.62665C19.6431 0.405709 15.7963 -0.447074 11.983 0.225251C8.16976 0.897577 4.84659 3.01469 2.62565 6.18652C0.404709 9.35829 -0.448074 13.2052 0.224252 17.0185C0.896634 20.8318 3.01369 24.1549 6.18558 26.3758C8.65024 28.1016 11.5222 29.0012 14.4695 29.0012C15.3152 29.0012 16.1673 28.927 17.0174 28.7772C20.8307 28.1048 24.1539 25.9877 26.3748 22.8158C28.5957 19.644 29.4486 15.7972 28.7763 11.984ZM26.4404 8.0014L26.1033 8.06082C25.7313 8.12635 25.3905 8.29899 25.1173 8.55982L24.8377 8.827C24.5601 9.09219 24.149 9.17477 23.7905 9.03747L22.7638 8.6441C22.5004 8.54323 22.2265 8.47679 21.9488 8.44462C21.9559 8.42224 21.9631 8.39987 21.9691 8.37699L22.2233 7.40084L23.0859 7.24876L23.2264 8.04564C23.2652 8.26591 23.4568 8.42083 23.6729 8.42083C23.6991 8.42083 23.7256 8.4185 23.7522 8.41386C23.9991 8.3703 24.164 8.1349 24.1205 7.88801L24.0104 7.26371L24.4022 7.38028C24.7561 7.48552 25.1354 7.50732 25.4989 7.44315L26.0585 7.34448C26.1919 7.55989 26.3194 7.77875 26.4404 8.0014ZM21.29 4.68599L21.1113 3.67297C21.1042 3.63253 21.1129 3.59175 21.1359 3.55788L21.6009 2.91529C21.8355 3.05944 22.0667 3.21095 22.2943 3.37028C22.3891 3.43695 22.483 3.50452 22.576 3.57312L22.2175 3.90135C22.0325 4.07065 22.0198 4.35776 22.1891 4.54269C22.2787 4.64051 22.4011 4.69013 22.5241 4.69013C22.6336 4.69013 22.7434 4.65076 22.8305 4.57101L23.297 4.14394C24.1329 4.85138 24.8723 5.64894 25.5052 6.5203L25.3414 6.54925C25.1159 6.58895 24.8807 6.57553 24.6612 6.51022L24.2292 6.3817C23.8753 6.27646 23.496 6.25466 23.1324 6.31878L21.7789 6.55746C21.604 6.58827 21.4632 6.71821 21.4184 6.89005L21.0906 8.14816C21.0401 8.34232 20.8798 8.49027 20.6822 8.5251L19.8786 8.66682C19.8786 8.66682 19.8786 8.66682 19.8786 8.66682L19.8639 8.66942C19.5846 8.7187 19.3171 8.5315 19.2678 8.25209L19.1452 7.55666C19.1046 7.3267 19.2244 7.09781 19.4365 7.00005L20.3575 6.57547C20.3664 6.57139 20.3751 6.56703 20.3837 6.56239C20.6256 6.43132 20.837 6.24293 20.9947 6.01756C21.2678 5.62753 21.3726 5.15475 21.29 4.68599ZM3.36934 6.70727C3.53099 6.47635 3.69961 6.25217 3.87356 6.03336L4.33059 6.35338C4.53591 6.49714 4.78491 6.55242 5.03169 6.5088C5.27847 6.4653 5.49354 6.32823 5.63724 6.12302L5.8898 5.76228C6.11693 5.43779 6.45694 5.22125 6.84703 5.15249L6.97821 5.12938L7.12604 5.96777C7.16489 6.18805 7.3564 6.34296 7.57254 6.34296C7.59871 6.34296 7.62527 6.34075 7.65189 6.33599C7.89879 6.29249 8.06367 6.05704 8.02011 5.81014L7.99253 5.65376L9.8832 4.61723L12.0454 4.23598L11.6638 4.40624C11.3459 4.54802 11.1495 4.85223 11.1511 5.20018C11.1527 5.54823 11.3519 5.85058 11.671 5.98941L12.9622 6.55112C12.9766 6.5574 12.9838 6.57338 12.9789 6.58827L12.8869 6.86927C12.8833 6.87992 12.8743 6.88773 12.8633 6.88966L12.1441 7.01648C11.8972 7.05998 11.6822 7.19705 11.5384 7.40231C11.5348 7.40735 11.5314 7.41251 11.5281 7.41766L8.49601 12.1489L7.71759 12.2862C6.68226 12.4688 5.98847 13.4596 6.17102 14.4949L6.18524 14.5757L5.38858 14.5575C5.07825 14.5504 4.7942 14.4033 4.60932 14.1541L4.21929 13.6282C4.11689 13.4901 3.94504 13.4218 3.77585 13.4516L3.44003 13.5108C3.1144 13.5682 2.78974 13.4114 2.63222 13.1206L1.40413 10.8526C1.81331 9.38865 2.47187 7.98905 3.36934 6.70727ZM25.631 22.2949C23.5492 25.2683 20.4342 27.2528 16.8598 27.8831C16.0626 28.0236 15.2643 28.0931 14.4713 28.0931C11.7088 28.093 9.01631 27.2496 6.70622 25.6321C3.73303 23.5502 1.74851 20.4352 1.11833 16.8607C0.842145 15.2943 0.84056 13.7219 1.10105 12.1993L1.83392 13.5527C2.17779 14.1877 2.88654 14.53 3.59772 14.4047L3.65719 14.3942L3.88013 14.6948C4.23317 15.1707 4.77545 15.4515 5.36797 15.465L7.47687 15.5132C7.57877 15.5156 7.67676 15.5476 7.76019 15.6061L7.89873 15.7031C8.09845 15.843 8.32552 15.9275 8.56143 15.9527L8.35696 17.2968C8.34954 17.3457 8.3501 17.3954 8.35865 17.444L8.57066 18.6465C8.66168 19.1629 8.99535 19.6128 9.46321 19.8498L11.0971 20.6776C11.3113 20.7862 11.4641 20.9922 11.5058 21.2287L11.7884 22.8318C11.9124 23.5342 12.1718 24.1938 12.5596 24.7923L13.5205 26.2751C13.7145 26.5744 14.0466 26.7512 14.399 26.7512C14.4525 26.7512 14.5065 26.7471 14.5605 26.7388C14.8404 26.6956 15.0854 26.5449 15.2503 26.3146C15.4152 26.0843 15.479 25.8039 15.4297 25.5249L15.1563 23.9741L15.8514 23.31C16.1828 22.9935 16.3892 22.5678 16.4325 22.1115L16.5473 20.9016C16.5599 20.8386 16.6098 20.7896 16.6736 20.7783L16.9733 20.7255C17.4552 20.6405 17.8158 20.2402 17.8503 19.7521L17.936 18.537C17.9829 17.8728 17.6732 17.2229 17.1278 16.8409L16.8799 16.6673C16.4627 16.3752 15.9568 16.263 15.4552 16.3515L15.2403 16.3893C15.1051 16.4133 14.9684 16.383 14.8558 16.3041L13.1768 15.1284C12.5477 14.688 11.7847 14.5188 11.0285 14.6521L8.80362 15.0444C8.66842 15.0683 8.53181 15.038 8.4192 14.9591L8.28066 14.8621C8.04985 14.7005 7.77899 14.6117 7.49732 14.6053L7.1108 14.5964L7.06504 14.3368C6.96943 13.7944 7.33283 13.2754 7.87511 13.1798L8.38176 13.0905L8.47109 13.5971C8.50994 13.8174 8.70144 13.9723 8.91758 13.9723C8.94375 13.9723 8.97032 13.97 8.99694 13.9653C9.24384 13.9218 9.40872 13.6864 9.36516 13.4395L9.23177 12.6828L12.2845 7.91956C12.289 7.91457 12.2951 7.91123 12.3018 7.91004L13.021 7.78316C13.3625 7.72301 13.6416 7.48087 13.7496 7.15139L13.8416 6.87034C13.9932 6.40759 13.7708 5.91221 13.3243 5.71799L12.1225 5.19519L13.484 4.588C13.6742 4.50321 13.7823 4.2997 13.7462 4.09466L13.6402 3.49337C13.6192 3.37482 13.5521 3.26935 13.4535 3.20031C13.3548 3.13126 13.2328 3.10419 13.1143 3.12514L9.65182 3.73567C9.60299 3.74428 9.55587 3.76077 9.51243 3.78473L7.826 4.70922L7.79338 4.52428C7.77242 4.40573 7.7053 4.30033 7.60669 4.23128C7.50808 4.16224 7.38596 4.13516 7.26747 4.15606L6.68917 4.25807C6.06023 4.36897 5.51217 4.71811 5.14588 5.24119L4.89332 5.60193C4.8915 5.60448 4.88612 5.61218 4.87378 5.61439C4.86143 5.61666 4.85373 5.61116 4.85112 5.60935L4.4637 5.33804C6.4758 3.12509 9.14681 1.64682 12.1404 1.11893C12.9377 0.978403 13.736 0.908962 14.5289 0.908962C16.7174 0.908962 18.8618 1.43884 20.807 2.46307L20.3974 3.02925C20.396 3.03118 20.3947 3.03305 20.3933 3.03508C20.2302 3.26799 20.1676 3.5504 20.217 3.83049L20.3957 4.84357C20.4362 5.07347 20.3848 5.3053 20.2509 5.49658C20.176 5.60352 20.0765 5.69346 19.9626 5.75747L19.0563 6.1753C18.47 6.44554 18.1389 7.07833 18.251 7.71401L18.3736 8.40944C18.4316 8.73813 18.5995 9.01969 18.8318 9.22535C18.5911 9.47701 18.4183 9.7951 18.3433 10.1542L18.1213 11.2168C18.0363 11.6234 18.0298 12.037 18.1019 12.4461C18.2786 13.4483 18.9261 14.3212 19.8339 14.7812L19.9147 14.8221C20.5379 15.1379 21.2603 15.245 21.9483 15.1237L21.984 15.1174C22.2468 15.0711 22.5117 15.1299 22.7302 15.2829C22.9487 15.4358 23.0946 15.6648 23.1409 15.9275L23.4232 17.5288C23.5256 18.1092 23.7411 18.6537 24.0638 19.1468L25.1179 20.7577C25.3605 21.1284 25.7199 21.3973 26.1281 21.5311C25.9714 21.7899 25.8062 22.0448 25.631 22.2949ZM14.2202 23.8926L14.5358 25.6826C14.544 25.7294 14.5276 25.7647 14.5123 25.786C14.497 25.8073 14.4689 25.8343 14.4181 25.8421C14.3652 25.8504 14.3117 25.8264 14.2824 25.7813L13.3216 24.2986C13.0002 23.8027 12.7852 23.2561 12.6826 22.6741L12.3999 21.0711C12.3089 20.5546 11.9752 20.1048 11.5074 19.8678L9.87351 19.0399C9.65924 18.9314 9.50648 18.7254 9.46479 18.4889L9.26564 17.3598L9.49617 15.8446L11.1863 15.5465C11.7038 15.4553 12.2258 15.571 12.6562 15.8724L14.3352 17.0481C14.6465 17.266 15.0239 17.3497 15.3981 17.2837L15.613 17.2458C15.8757 17.1995 16.1408 17.2583 16.3593 17.4112L16.6072 17.5848C16.8929 17.785 17.0552 18.1254 17.0306 18.4733L16.9448 19.6883C16.9398 19.7601 16.8867 19.819 16.8159 19.8315L16.5161 19.8843C16.0642 19.964 15.7153 20.3226 15.648 20.7765C15.6468 20.7844 15.6459 20.7922 15.6451 20.8002L15.5288 22.0258C15.5061 22.2648 15.398 22.4878 15.2244 22.6536L14.3536 23.4856C14.2439 23.5903 14.1938 23.7432 14.2202 23.8926ZM26.5887 20.71C26.3014 20.6707 26.0401 20.5088 25.8779 20.2608L24.8238 18.65C24.5688 18.2602 24.3985 17.83 24.3176 17.3714L24.0352 15.7701C23.9468 15.2686 23.6683 14.8315 23.2511 14.5394C22.834 14.2473 22.3281 14.1351 21.8265 14.2236L21.7908 14.2298C21.295 14.3172 20.7745 14.2401 20.3253 14.0125L20.2444 13.9716C19.5902 13.6401 19.1235 13.011 18.9962 12.2887C18.9442 11.9939 18.9489 11.6958 19.0101 11.4028L19.2321 10.3402C19.3161 9.93812 19.6317 9.63232 20.0362 9.56089L21.1364 9.3669C21.5739 9.28975 22.0242 9.33303 22.4391 9.49196L23.4658 9.88527C24.1502 10.1475 24.9349 9.98989 25.4649 9.48358L25.7446 9.2164C25.8877 9.07973 26.0663 8.98939 26.261 8.955L26.8624 8.84897C27.3345 9.88624 27.679 10.9899 27.8821 12.1417C28.4041 15.1021 27.9445 18.0837 26.5887 20.71Z" fill="#0062D7"/>
<path d="M10.2597 5.72993C10.1044 5.53322 9.8189 5.49968 9.62213 5.65505L8.89027 6.23301C8.69356 6.38838 8.65997 6.6739 8.81539 6.87062C8.90488 6.98407 9.03771 7.04326 9.17189 7.04326C9.27039 7.04326 9.36962 7.01131 9.453 6.9455L10.1849 6.36753C10.3816 6.21211 10.4152 5.9267 10.2597 5.72993Z" fill="#0062D7"/>
<path d="M19.6327 4.74469L19.4645 3.79097C19.421 3.54402 19.1857 3.37919 18.9387 3.42275C18.6918 3.46625 18.5269 3.70171 18.5705 3.9486L18.7386 4.90232C18.7775 5.1226 18.969 5.27751 19.1851 5.27751C19.2113 5.27751 19.2379 5.27519 19.2645 5.27054C19.5114 5.22699 19.6763 4.99159 19.6327 4.74469Z" fill="#0062D7"/>
</g>
<defs>
<clipPath id="clip0">
<rect width="29" height="29" fill="white"/>
</clipPath>
</defs>
</svg>
