<svg width="71" height="31" viewBox="0 0 71 31" fill="none" xmlns="http://www.w3.org/2000/svg">
<g clip-path="url(#clip0)">
<path d="M30.0439 29.2831L28.1745 21.8057C28.1454 21.6891 28.0998 21.5801 28.0417 21.48C28.1486 21.1836 28.2073 20.8641 28.2073 20.5313V8.20528C28.2073 6.65963 26.9499 5.40216 25.4041 5.40216H4.69258C3.14672 5.40216 1.88932 6.65963 1.88932 8.20528V20.5312C1.88932 20.864 1.94795 21.1835 2.05506 21.4799C1.99699 21.5801 1.95109 21.6888 1.92202 21.8055L0.0374887 29.3434C-0.0562932 29.7187 0.0280489 30.1163 0.266163 30.4212C0.504209 30.7261 0.869486 30.9043 1.25645 30.9043H28.8403C28.8407 30.9043 28.8412 30.9043 28.8414 30.9043C29.5354 30.9043 30.0978 30.3418 30.0978 29.648C30.0977 29.5211 30.079 29.3986 30.0439 29.2831ZM18.2322 28.9402C18.2319 28.9402 18.2316 28.9403 18.2311 28.9402H11.8654C11.792 28.9402 11.7222 28.9076 11.6752 28.8512C11.628 28.7949 11.6083 28.7206 11.6214 28.648L12.1174 25.8951C12.1387 25.777 12.2415 25.6912 12.3615 25.6912H17.7352C17.8552 25.6912 17.9579 25.7771 17.9792 25.8951L18.4711 28.6261C18.477 28.6472 18.4801 28.6693 18.4801 28.6923C18.4803 28.8292 18.3692 28.9402 18.2322 28.9402ZM25.7589 20.5313C25.7589 20.6745 25.6733 20.7979 25.551 20.854H4.54559C4.423 20.798 4.33743 20.6745 4.33743 20.5313V8.20528C4.33743 8.00958 4.49675 7.8504 4.69252 7.8504H25.4041C25.5997 7.8504 25.759 8.00951 25.759 8.20528V20.5313H25.7589Z" fill="white"/>
<path d="M31.531 0.551239H19.073V12.1273H31.531V0.551239Z" fill="#0062D7"/>
<path d="M28.2849 11.7488C28.2123 11.7046 28.1492 11.6454 28.0989 11.5738C28.0756 11.5407 28.0561 11.5057 28.0398 11.4696H19.7954V3.34344H30.986V8.6495C31.2249 8.67108 31.4253 8.82798 31.5095 9.04284C31.5841 9.002 31.6671 8.97676 31.7544 8.96906C31.8134 8.96392 31.872 8.96759 31.9289 8.97882V1.31905C31.9289 0.885734 31.5765 0.533203 31.1432 0.533203H19.6383C19.2051 0.533203 18.8525 0.885734 18.8525 1.31905V11.6268C18.8525 12.0601 19.2051 12.4125 19.6383 12.4125H28.2132C28.1464 12.277 28.1305 12.1241 28.1699 11.9769C28.1926 11.8923 28.2319 11.815 28.2849 11.7488ZM30.1231 1.8528C30.1231 1.69256 30.2529 1.56262 30.4132 1.56262H30.7034C30.8636 1.56262 30.9935 1.69253 30.9935 1.8528V2.18165C30.9935 2.3419 30.8636 2.47181 30.7034 2.47181H30.4132C30.2529 2.47181 30.1231 2.3419 30.1231 2.18165V1.8528ZM28.7738 1.8528C28.7738 1.69256 28.9038 1.56262 29.064 1.56262H29.3542C29.5145 1.56262 29.6444 1.69253 29.6444 1.8528V2.18165C29.6444 2.3419 29.5145 2.47181 29.3542 2.47181H29.064C28.9038 2.47181 28.7738 2.3419 28.7738 2.18165V1.8528ZM27.4246 1.8528C27.4246 1.69256 27.5546 1.56262 27.7148 1.56262H28.005C28.1652 1.56262 28.2951 1.69253 28.2951 1.8528V2.18165C28.2951 2.3419 28.1652 2.47181 28.005 2.47181H27.7148C27.5546 2.47181 27.4246 2.3419 27.4246 2.18165V1.8528Z" fill="white"/>
<path d="M32.8521 11.1954L32.7649 10.7009C32.7531 10.6343 32.6898 10.5899 32.6231 10.6016L32.1834 10.6791C32.1306 10.5552 32.0632 10.4392 31.9832 10.333L32.2704 9.99063C32.2912 9.96582 32.3015 9.93364 32.2986 9.90127C32.2957 9.86889 32.2802 9.83901 32.2553 9.81811L31.8707 9.49536C31.8458 9.47449 31.8136 9.46435 31.7812 9.46718C31.7489 9.47001 31.719 9.48559 31.6981 9.51046L31.4112 9.85255C31.2933 9.79254 31.1673 9.74626 31.0354 9.71572V9.26919C31.0354 9.20158 30.9805 9.1467 30.9129 9.1467H30.4108C30.3431 9.1467 30.2883 9.20158 30.2883 9.26919V9.71572C30.1562 9.74623 30.0303 9.79254 29.9125 9.85255L29.6255 9.5105C29.582 9.45868 29.5048 9.45194 29.453 9.49539L29.0683 9.81811C29.0434 9.83901 29.0279 9.86889 29.025 9.90127C29.0222 9.93364 29.0324 9.96585 29.0532 9.99073L29.3404 10.333C29.2606 10.4392 29.193 10.5553 29.1402 10.6791L28.7005 10.6016C28.634 10.5899 28.5704 10.6343 28.5586 10.7009L28.4715 11.1954C28.4658 11.2274 28.4732 11.2602 28.4917 11.2869C28.5105 11.3136 28.5388 11.3316 28.5708 11.3373L29.0108 11.4148C29.0179 11.5512 29.0417 11.683 29.0799 11.8087L28.6931 12.0319C28.665 12.048 28.6445 12.0748 28.636 12.1063C28.6276 12.1376 28.6321 12.171 28.6483 12.1991L28.8993 12.6339C28.9155 12.6621 28.9423 12.6826 28.9736 12.691C28.9841 12.6938 28.9948 12.6952 29.0054 12.6952C29.0266 12.6952 29.0478 12.6897 29.0665 12.6788L29.4536 12.4553C29.5447 12.5528 29.6474 12.6392 29.7598 12.7123L29.6069 13.1322C29.5958 13.1628 29.5973 13.1964 29.611 13.2258C29.6247 13.2553 29.6495 13.2781 29.6801 13.2891L30.1518 13.4608C30.1654 13.4657 30.1795 13.4683 30.1937 13.4683C30.2114 13.4683 30.2291 13.4644 30.2455 13.4568C30.275 13.4431 30.2977 13.4182 30.3088 13.3877L30.4616 12.9677C30.5271 12.9757 30.5938 12.9799 30.6614 12.9799C30.7291 12.9799 30.7958 12.9757 30.8613 12.9677L31.0142 13.3877C31.0252 13.4182 31.048 13.4431 31.0774 13.4568C31.0938 13.4644 31.1114 13.4683 31.1292 13.4683C31.1434 13.4683 31.1575 13.4658 31.1711 13.4608L31.6429 13.2891C31.6734 13.2781 31.6982 13.2553 31.712 13.2258C31.7256 13.1964 31.7271 13.1628 31.716 13.1322L31.5631 12.7124C31.6754 12.6393 31.7781 12.5528 31.8693 12.4553L32.2564 12.6789C32.2751 12.6897 32.2963 12.6952 32.3176 12.6952C32.3281 12.6952 32.3388 12.6938 32.3493 12.6911C32.3806 12.6826 32.4074 12.6621 32.4236 12.634L32.6746 12.1991C32.6909 12.1711 32.6953 12.1376 32.6869 12.1063C32.6784 12.0749 32.6579 12.0482 32.6298 12.0319L32.243 11.8087C32.2813 11.6831 32.305 11.5512 32.3121 11.4149L32.7522 11.3373C32.7841 11.3316 32.8126 11.3136 32.8312 11.2869C32.8505 11.2602 32.8578 11.2274 32.8521 11.1954ZM30.6618 11.9811C30.29 11.9811 29.9883 11.6796 29.9883 11.3076C29.9883 10.9356 30.29 10.6341 30.6618 10.6341C31.0338 10.6341 31.3355 10.9356 31.3355 11.3076C31.3355 11.6796 31.0338 11.9811 30.6618 11.9811Z" fill="white"/>
<path d="M24.3438 7.84793C24.3438 7.68948 24.251 7.54394 24.1073 7.47719L22.7917 6.86596L24.1073 6.25465C24.251 6.18784 24.3438 6.04233 24.3438 5.88395V5.87331C24.3438 5.73294 24.2732 5.60407 24.155 5.52875C24.0895 5.48698 24.0133 5.46487 23.9347 5.46487C23.8754 5.46487 23.8159 5.47791 23.7626 5.50265L21.6594 6.48068C21.5158 6.5475 21.423 6.69301 21.423 6.85135V6.8806C21.423 7.03874 21.5158 7.18414 21.6595 7.2513L23.7628 8.22943C23.8172 8.2546 23.8752 8.26738 23.9349 8.26738C24.0129 8.26738 24.0888 8.24524 24.155 8.20323C24.2733 8.12761 24.3438 7.99884 24.3438 7.85863V7.84793Z" fill="white"/>
<path d="M26.4189 4.46831C26.3422 4.36329 26.2188 4.3006 26.0888 4.3006H26.0784C25.8999 4.3006 25.7433 4.41479 25.689 4.58454L24.3033 8.87812C24.2638 9.00209 24.2859 9.13863 24.3626 9.24362C24.4393 9.34859 24.5628 9.4113 24.6928 9.4113H24.7032C24.8817 9.4113 25.0381 9.29707 25.0924 9.12736L26.4779 4.83411C26.5178 4.71025 26.4957 4.57351 26.4189 4.46831Z" fill="white"/>
<path d="M29.122 6.48065L27.0188 5.50261C26.9657 5.47794 26.9064 5.4649 26.847 5.4649C26.7684 5.4649 26.6921 5.48694 26.6268 5.52865C26.5084 5.6041 26.4377 5.73294 26.4377 5.87331V5.88395C26.4377 6.0422 26.5305 6.18774 26.6743 6.25482L27.9899 6.86599L26.6743 7.47719C26.5305 7.54394 26.4377 7.68948 26.4377 7.84792V7.85863C26.4377 7.99883 26.5084 8.12757 26.6268 8.20326C26.6926 8.2452 26.7685 8.26738 26.8466 8.26738C26.9063 8.26738 26.9642 8.2546 27.0189 8.22933L29.1222 7.25119C29.2659 7.18421 29.3586 7.03877 29.3586 6.88063V6.85138C29.3585 6.69301 29.2657 6.5475 29.122 6.48065Z" fill="white"/>
<path d="M43.0574 15.986H41.7859L41.4352 14.9076H39.3396L38.9976 15.986H37.7263L39.7254 10.2691C39.8131 10.0704 39.9095 9.93299 40.0148 9.85699C40.1258 9.781 40.2603 9.74301 40.4181 9.74301C40.576 9.74301 40.7016 9.77808 40.7951 9.84823C40.8946 9.91837 40.9822 10.0587 41.0582 10.2691L43.0574 15.986ZM41.1547 13.8816L40.4181 11.409L39.6466 13.8816H41.1547ZM44.9224 15.986L43.7824 15.9949V9.39227H44.9224V15.986ZM47.2429 15.986L46.103 15.9949V9.39227H47.2429V15.986ZM51.9132 15.986H51.1504L50.7997 15.381L49.5809 16.0386C48.9028 16.0386 48.4469 15.7931 48.2131 15.3021C48.0961 15.0625 48.0143 14.8053 47.9676 14.5305C47.9267 14.25 47.9062 13.9605 47.9062 13.6624C47.9062 13.3585 47.9091 13.1363 47.915 12.9961C47.9208 12.8499 47.9354 12.6833 47.9587 12.4962C47.9821 12.3033 48.0143 12.1426 48.0552 12.014C48.102 11.8853 48.1663 11.7538 48.2481 11.6194C48.33 11.4791 48.4294 11.3681 48.5463 11.2863C48.8093 11.105 49.1513 11.0144 49.5721 11.0144H50.7734L51.9132 10.9443V15.986ZM50.7734 14.3902V12.0404H49.9054C49.5838 12.0404 49.3588 12.1631 49.2302 12.4086C49.1074 12.6541 49.046 13.0223 49.046 13.5134C49.046 13.9986 49.1046 14.3405 49.2214 14.5392C49.3441 14.738 49.5721 14.8374 49.9054 14.8374L50.7734 14.3902ZM57.0355 15.986H55.8956V12.7856C55.8956 12.4992 55.8372 12.3033 55.7203 12.1981C55.6034 12.0929 55.4398 12.0404 55.2293 12.0404L54.2034 12.47V15.986H53.0635V10.9793H53.914L54.1771 11.5755L55.58 10.9267C55.9717 10.9267 56.3107 11.0728 56.5971 11.3652C56.8894 11.6516 57.0355 12.0724 57.0355 12.6278V15.986ZM42.2595 19.1065C42.6218 19.463 42.8031 19.9892 42.8031 20.6848C42.8031 21.3804 42.6218 21.9095 42.2595 22.2718C41.9029 22.6285 41.3972 22.8068 40.7425 22.8068H39.5413V24.8059H38.3225V18.5629H40.7425C41.3972 18.5629 41.9029 18.7441 42.2595 19.1065ZM41.5843 20.6848C41.5843 19.995 41.2833 19.6501 40.6811 19.6501H39.5413V21.7107H40.6811C40.9734 21.7107 41.1956 21.6317 41.3476 21.474C41.5054 21.3161 41.5843 21.0531 41.5843 20.6848ZM46.3975 19.8167L46.0819 20.9391C45.9941 20.904 45.8948 20.8865 45.7837 20.8865C45.4914 20.8865 45.132 21.0122 44.7052 21.2635V24.8059H43.5653V19.7992H44.4158L44.6789 20.2377L45.8889 19.7378C45.9474 19.7319 46.0263 19.7291 46.1256 19.7291C46.2251 19.7291 46.3156 19.7583 46.3975 19.8167ZM49.8666 22.5437V22.0877C49.8666 21.6551 49.8023 21.3249 49.6738 21.0969C49.551 20.8689 49.2909 20.7549 48.8933 20.7549C48.2504 20.7549 47.9289 21.1876 47.9289 22.0527V22.5087C47.9289 23.4381 48.2504 23.9028 48.8933 23.9028C49.3084 23.9028 49.5802 23.7479 49.7088 23.4381C49.814 23.1925 49.8666 22.8944 49.8666 22.5437ZM51.0066 22.2807C51.0066 23.3621 50.8019 24.0869 50.3927 24.4552C50.0478 24.7709 49.5481 24.9286 48.8933 24.9286C48.0574 24.9286 47.4934 24.6832 47.2011 24.1922C46.9264 23.742 46.789 23.1049 46.789 22.2807C46.789 21.509 46.9264 20.904 47.2011 20.4656C47.5051 19.9746 48.0574 19.7291 48.8583 19.7291C49.665 19.7291 50.2232 19.9454 50.533 20.3779C50.8487 20.8047 51.0066 21.4389 51.0066 22.2807ZM53.0581 19.9833V24.99C53.0581 25.3466 52.9441 25.6535 52.7161 25.9107C52.4939 26.1679 52.1636 26.2965 51.7253 26.2965H51.0764V25.332H51.5148C51.7837 25.332 51.9182 25.1946 51.9182 24.9199V19.9833H53.0581ZM52.4969 17.8877C52.7716 17.8877 52.9499 17.9316 53.0317 18.0192C53.1135 18.101 53.1545 18.2794 53.1545 18.5542C53.1545 18.8231 53.1107 19.0013 53.023 19.089C52.9411 19.1708 52.7628 19.2117 52.4881 19.2117C52.2192 19.2117 52.0409 19.1679 51.9533 19.0802C51.8714 18.9925 51.8304 18.8142 51.8304 18.5453C51.8304 18.2764 51.8714 18.101 51.9533 18.0192C52.0409 17.9316 52.2222 17.8877 52.4969 17.8877ZM58.0857 22.57H55.1658C55.1658 23.0259 55.236 23.3591 55.3763 23.5696C55.5225 23.78 55.8117 23.8852 56.2444 23.8852C56.5249 23.8852 56.7324 23.7976 56.8669 23.6222C57.0013 23.4409 57.0686 23.2685 57.0686 23.1049H58.0944C58.0944 23.7303 57.925 24.1892 57.5859 24.4814C57.2527 24.7737 56.8085 24.9199 56.2531 24.9199C55.7036 24.9199 55.2769 24.841 54.973 24.6832C54.3474 24.3616 54.0348 23.5082 54.0348 22.1228C54.0348 21.2986 54.213 20.6965 54.5696 20.3166C54.9262 19.9307 55.4699 19.7378 56.2005 19.7378C57.469 19.7378 58.1033 20.4422 58.1033 21.851C58.1033 22.003 58.0974 22.2426 58.0857 22.57ZM55.1921 21.7896H57.0686C57.0686 21.4039 56.9955 21.1232 56.8494 20.9479C56.7032 20.7725 56.4782 20.6848 56.1742 20.6848C55.8761 20.6848 55.6364 20.7754 55.4552 20.9566C55.2798 21.132 55.1921 21.4097 55.1921 21.7896ZM61.6969 22.9734L62.7316 22.9645C62.7258 23.0113 62.7199 23.0961 62.7141 23.2189C62.7082 23.3416 62.7024 23.4264 62.6965 23.4731C62.6965 23.514 62.6907 23.5813 62.679 23.6748C62.6673 23.7684 62.6527 23.8385 62.6351 23.8852C62.6234 23.9261 62.6059 23.9817 62.5825 24.0518C62.4774 24.3558 62.1908 24.5954 61.7233 24.7709C61.4252 24.876 61.1124 24.9286 60.785 24.9286C60.4636 24.9286 60.1713 24.876 59.9082 24.7709C59.6452 24.6656 59.4376 24.5312 59.2857 24.3675C58.9408 24.0051 58.7683 23.327 58.7683 22.3333C58.7683 21.3336 58.9408 20.6526 59.2857 20.2902C59.4376 20.1265 59.6452 19.9921 59.9082 19.8868C60.1713 19.7817 60.4636 19.7291 60.785 19.7291C61.4163 19.7291 61.8957 19.8868 62.223 20.2026C62.5503 20.5182 62.7141 20.9566 62.7141 21.5177H61.6794C61.6794 21.2605 61.6151 21.0706 61.4864 20.9479C61.3579 20.8192 61.1182 20.7549 60.7675 20.7549C60.4226 20.7549 60.1917 20.8631 60.0748 21.0794C59.9637 21.2957 59.9082 21.6201 59.9082 22.0527V22.5087C59.9082 23.2042 60.0426 23.631 60.3115 23.7888C60.4344 23.8648 60.5951 23.9028 60.7938 23.9028C60.9925 23.9028 61.1533 23.8852 61.2761 23.8502C61.4046 23.8093 61.4953 23.742 61.5479 23.6485C61.6063 23.5549 61.6443 23.4644 61.6619 23.3766C61.6794 23.2832 61.6911 23.1487 61.6969 22.9734ZM65.8229 24.8059H65.1126C64.6801 24.8059 64.3498 24.6774 64.1218 24.4202C63.8997 24.1629 63.7887 23.856 63.7887 23.4995V20.8689H63.3064V20.0008H63.7887V19.0189H64.9285V20.0008H65.7352V20.8689H64.9285V23.4292C64.9285 23.704 65.06 23.8413 65.3231 23.8413H65.8229V24.8059ZM70.2032 23.4205V23.5521C70.1682 23.9905 69.9811 24.3207 69.6421 24.5429C69.3088 24.765 68.8908 24.876 68.3882 24.876C67.6458 24.876 67.1255 24.7416 66.8274 24.4727C66.5527 24.2272 66.4153 23.8648 66.4153 23.3855V23.2802H67.45C67.45 23.5491 67.5201 23.7333 67.6604 23.8326C67.8007 23.932 68.0433 23.9817 68.3882 23.9817C68.8558 23.9817 69.0896 23.8121 69.0896 23.4731C69.0896 23.1925 69.0078 23.0054 68.8441 22.912C68.7681 22.8652 68.6717 22.8301 68.5548 22.8068L67.6692 22.6577C66.8976 22.5349 66.5118 22.0527 66.5118 21.2109C66.5118 20.7433 66.6812 20.3809 67.0204 20.1237C67.3652 19.8606 67.8007 19.7291 68.3268 19.7291C69.5251 19.7291 70.1243 20.2464 70.1243 21.281V21.395H69.1335C69.1218 21.1203 69.0487 20.9332 68.9142 20.8339C68.7798 20.7345 68.5899 20.6848 68.3443 20.6848C68.1047 20.6848 67.9234 20.7345 67.8007 20.8339C67.6779 20.9274 67.6166 21.0327 67.6166 21.1495C67.6166 21.4827 67.751 21.6728 68.0199 21.7195L69.0809 21.9123C69.8291 22.0527 70.2032 22.5554 70.2032 23.4205Z" fill="white"/>
</g>
<defs>
<clipPath id="clip0">
<rect width="71" height="30.9798" fill="white"/>
</clipPath>
</defs>
</svg>
